<?xml version="1.0"?>
<svg width="256" height="249" xmlns="http://www.w3.org/2000/svg" xmlns:svg="http://www.w3.org/2000/svg" preserveAspectRatio="xMinYMin meet">
 <g class="layer">
  <title>Layer 1</title>
  <g fill="#161614" id="svg_1">
   <path d="m127.5,0c-70.41,0 -127.5,57.09 -127.5,127.5c0,56.34 36.53,104.13 87.2,121c6.37,1.18 8.71,-2.77 8.71,-6.14c0,-3.04 -0.12,-13.08 -0.18,-23.74c-35.47,7.71 -42.95,-15.04 -42.95,-15.04c-5.8,-14.74 -14.16,-18.66 -14.16,-18.66c-11.57,-7.91 0.87,-7.75 0.87,-7.75c12.81,0.9 19.55,13.14 19.55,13.14c11.37,19.49 29.83,13.86 37.1,10.6c1.15,-8.24 4.45,-13.87 8.1,-17.05c-28.32,-3.23 -58.1,-14.16 -58.1,-63.01c0,-13.92 4.99,-25.3 13.14,-34.23c-1.32,-3.21 -5.69,-16.18 1.24,-33.74c0,0 10.7,-3.43 35.07,13.07c10.17,-2.83 21.08,-4.24 31.91,-4.29c10.84,0.05 21.76,1.46 31.95,4.29c24.33,-16.5 35.03,-13.07 35.03,-13.07c6.94,17.56 2.57,30.53 1.25,33.74c8.17,8.93 13.12,20.3 13.12,34.23c0,48.97 -29.83,59.75 -58.22,62.91c4.57,3.95 8.65,11.71 8.65,23.61c0,17.06 -0.15,30.79 -0.15,34.99c0,3.39 2.29,7.37 8.76,6.12c50.63,-16.88 87.12,-64.66 87.12,-120.98c0,-70.42 -57.09,-127.5 -127.51,-127.5" fill="#ffffff" id="svg_2" transform="matrix(1 0 0 1 0 0)"/>
   <path d="m47.76,181.63c-0.28,0.64 -1.28,0.83 -2.19,0.39c-0.92,-0.41 -1.44,-1.28 -1.15,-1.91c0.28,-0.65 1.28,-0.84 2.2,-0.4c0.93,0.42 1.46,1.29 1.13,1.92m6.28,5.6c-0.61,0.56 -1.8,0.3 -2.61,-0.59c-0.83,-0.89 -0.99,-2.08 -0.37,-2.65c0.63,-0.56 1.78,-0.3 2.62,0.59c0.83,0.9 0.99,2.08 0.36,2.65m4.3,7.16c-0.78,0.54 -2.06,0.03 -2.85,-1.1c-0.78,-1.13 -0.78,-2.49 0.02,-3.04c0.79,-0.54 2.05,-0.05 2.85,1.07c0.78,1.15 0.78,2.51 -0.02,3.07m7.28,8.29c-0.7,0.77 -2.19,0.57 -3.28,-0.49c-1.12,-1.02 -1.43,-2.48 -0.73,-3.25c0.71,-0.78 2.21,-0.56 3.31,0.48c1.1,1.03 1.44,2.5 0.7,3.26m9.4,2.8c-0.31,1 -1.74,1.46 -3.18,1.03c-1.45,-0.44 -2.39,-1.61 -2.1,-2.62c0.3,-1 1.74,-1.47 3.19,-1.02c1.44,0.44 2.39,1.6 2.09,2.61m10.7,1.19c0.04,1.05 -1.18,1.92 -2.7,1.94c-1.53,0.04 -2.76,-0.82 -2.78,-1.85c0,-1.06 1.2,-1.92 2.73,-1.95c1.51,-0.03 2.75,0.82 2.75,1.86m10.52,-0.4c0.18,1.02 -0.87,2.08 -2.38,2.36c-1.48,0.27 -2.85,-0.37 -3.04,-1.38c-0.18,-1.05 0.89,-2.11 2.37,-2.38c1.51,-0.26 2.86,0.35 3.05,1.4" fill="#ffffff" id="svg_3"/>
  </g>
 </g>
</svg>